# Blender 3.4.1
# www.blender.org
mtllib brokenWindow.mtl
o window_Cube.007
v -1.800000 1.970000 0.750784
v -1.800000 1.970000 -0.249216
v -1.800000 1.015374 0.750784
v -1.800000 1.015374 -0.249217
v -1.831872 1.970000 0.750784
v -1.831872 1.970000 -0.249216
v -1.831872 1.015374 0.750784
v -1.831872 1.015374 -0.249217
v -1.801075 1.937813 -0.215499
v -1.801075 1.937813 0.717068
v -1.801075 1.047560 0.717067
v -1.801075 1.047560 -0.215500
v -1.830798 1.937813 -0.215499
v -1.830798 1.937813 0.717068
v -1.830798 1.047560 0.717067
v -1.830798 1.047560 -0.215500
v -1.800000 1.492687 0.750784
v -1.831872 1.492687 0.750784
v -1.801075 1.492687 0.717068
v -1.800000 1.492687 -0.249216
v -1.831872 1.492687 -0.249216
v -1.801075 1.492687 -0.215499
v -1.800000 1.970000 0.250784
v -1.831872 1.970000 0.250784
v -1.801075 1.937813 0.250784
v -1.830798 1.937813 0.250784
v -1.800000 1.015374 0.250783
v -1.831872 1.015374 0.250783
v -1.801075 1.047560 0.250783
v -1.815936 1.047560 0.717067
v -1.815936 1.047560 -0.215500
v -1.815936 1.937813 0.717068
v -1.815936 1.937813 -0.215499
v -1.830748 1.492687 -0.215499
v -1.830748 1.937813 0.250784
v -1.815936 1.937813 0.270323
v -1.801125 1.937813 0.250784
v -1.815936 1.937813 0.231245
vn -0.0000 -1.0000 -0.0000
vn -0.0000 -0.0000 1.0000
vn -0.0000 -0.0000 -1.0000
vn -0.0000 1.0000 -0.0000
vn -0.9994 -0.0333 -0.0000
vn 0.9995 -0.0000 0.0319
vn 0.9994 -0.0334 -0.0000
vn 0.9994 0.0334 -0.0000
vn 0.9995 -0.0000 -0.0319
vt 0.000000 0.000000
vt 0.000000 0.000000
vt 0.000000 0.000000
vt 0.000000 0.000000
vt 0.000000 0.000000
vt 0.000000 0.000000
vt 0.000000 0.000000
vt 0.000000 0.000000
vt 0.000000 0.000000
vt 0.000000 0.000000
vt 0.000000 0.000000
vt 0.000000 0.000000
vt 0.000000 0.000000
vt 0.000000 0.000000
vt 0.000000 0.000000
vt 0.000000 0.000000
vt 0.000000 0.000000
vt 0.000000 0.000000
vt 0.000000 0.000000
vt 0.000000 0.000000
vt 0.000000 0.000000
vt 0.000000 0.000000
vt 0.000000 0.000000
vt 0.000000 0.000000
vt 0.000000 0.000000
vt 0.000000 0.000000
vt 0.000000 0.000000
vt 0.000000 0.000000
vt 0.000000 0.000000
vt 0.000000 0.000000
vt 0.000000 0.000000
vt 0.000000 0.000000
vt 0.000000 0.000000
s 0
usemtl Material.007
f 27/25/1 28/26/1 8/8/1 4/4/1
f 17/15/2 18/16/2 7/7/2 3/3/2
f 20/18/3 4/4/3 8/8/3 21/19/3
f 23/21/4 2/2/4 6/6/4 24/22/4
f 32/28/1 14/14/1 26/24/1 35/30/1 36/31/1
f 24/22/5 26/24/5 14/14/5 5/5/5
f 20/18/6 22/20/6 12/12/6 4/4/6
f 23/21/7 25/23/7 9/9/7 2/2/7
f 27/25/8 4/4/8 12/12/8 29/27/8
f 17/15/9 3/3/9 11/11/9 19/17/9
f 1/1/9 17/15/9 19/17/9 10/10/9
f 1/1/2 5/5/2 18/16/2 17/15/2
f 2/2/6 9/9/6 22/20/6 20/18/6
f 2/2/3 20/18/3 21/19/3 6/6/3
f 1/1/7 10/10/7 25/23/7 23/21/7
f 6/6/5 13/13/5 26/24/5 24/22/5
f 25/23/1 37/32/1 38/33/1 33/29/1 9/9/1
f 1/1/4 23/21/4 24/22/4 5/5/4
f 3/3/8 27/25/8 29/27/8 11/11/8
f 3/3/1 7/7/1 28/26/1 27/25/1
f 35/30/1 26/24/1 13/13/1 33/29/1 38/33/1
f 10/10/1 32/28/1 36/31/1 37/32/1 25/23/1
l 7 15
l 8 16
l 15 30
l 12 31
l 16 31
l 11 30
