# Blender 3.4.1
# www.blender.org
mtllib onlywalls.mtl
o room_Cube.001
v 1.798200 0.000000 -2.297700
v 1.798200 -0.000000 2.297700
v -1.798200 0.000000 -2.297700
v -1.798200 -0.000000 2.297700
v 1.798200 2.297700 -2.297699
v 1.798200 2.297699 2.297700
v -1.798200 2.297700 -2.297699
v -1.798200 2.297699 2.297700
v -0.479520 0.000000 -2.297700
v -0.479520 -0.000000 2.297700
v -0.479520 2.297700 -2.297699
v -0.479520 2.297699 2.297700
v 0.479520 0.000000 -2.297700
v 0.479520 -0.000000 2.297700
v 0.479520 2.297700 -2.297699
v 0.479520 2.297699 2.297700
v -1.798200 1.968030 2.297700
v 1.798200 1.968030 2.297700
v -1.798200 1.968030 -2.297700
v 1.798200 1.968030 -2.297700
v -0.479520 1.968030 -2.297700
v -0.479520 1.968030 2.297700
v 0.479520 1.968030 2.297700
v 0.479520 1.968030 -2.297700
v 1.798200 -0.000000 0.749250
v -1.798200 -0.000000 0.749250
v 1.798200 2.297700 0.749250
v -1.798200 2.297700 0.749250
v 1.798200 1.968030 0.749250
v -1.798200 1.968030 0.749250
v 1.798200 1.968030 -0.249750
v 1.798200 0.000000 -0.249750
v -1.798200 0.000000 -0.249750
v 1.798200 2.297700 -0.249750
v -1.798200 2.297700 -0.249750
v -1.798200 1.968030 -0.249750
v 1.798200 1.014358 2.297700
v 1.798200 1.014359 -2.297700
v -1.798200 1.014358 2.297700
v -1.798200 1.014359 -2.297700
v -0.479520 1.014359 -2.297700
v -0.479520 1.014358 2.297700
v 0.479520 1.014358 2.297700
v 0.479520 1.014359 -2.297700
v -1.798200 1.014359 0.749250
v 1.798200 1.014359 0.749250
v 1.798200 1.014359 -0.249750
v -1.798200 1.014359 -0.249750
vn -0.0000 -0.0000 -1.0000
vn 1.0000 -0.0000 -0.0000
vn -1.0000 -0.0000 -0.0000
vn -0.0000 -0.0000 1.0000
vt 0.356764 0.512055
vt 0.356764 0.733848
vt 0.182136 0.512055
vt 0.182136 0.733848
vt 0.356764 0.512055
vt 0.356764 0.733848
vt 0.182136 0.512055
vt 0.182136 0.733848
vt 0.247712 0.512055
vt 0.247712 0.733848
vt 0.247712 0.512055
vt 0.247712 0.733848
vt 0.303586 0.512055
vt 0.303586 0.733848
vt 0.303586 0.512055
vt 0.303586 0.733848
vt 0.182136 0.733848
vt 0.356764 0.733848
vt 0.182136 0.512055
vt 0.356764 0.512055
vt 0.247712 0.512055
vt 0.247712 0.733848
vt 0.303586 0.733848
vt 0.303586 0.512055
vt 0.356764 0.622952
vt 0.182136 0.622952
vt 0.356764 0.622952
vt 0.182136 0.622952
vt 0.356764 0.622952
vt 0.182136 0.622952
vt 0.356764 0.567503
vt 0.356764 0.567503
vt 0.182136 0.567503
vt 0.356764 0.567503
vt 0.182136 0.567503
vt 0.182136 0.567503
vt 0.356764 0.733848
vt 0.356764 0.512055
vt 0.182136 0.733848
vt 0.182136 0.512055
vt 0.247712 0.512055
vt 0.247712 0.733848
vt 0.303586 0.733848
vt 0.303586 0.512055
vt 0.182136 0.622952
vt 0.356764 0.622952
vt 0.356764 0.567503
vt 0.182136 0.567503
s 0
usemtl None.006
f 22/22/1 17/17/1 8/8/1 12/12/1
f 36/36/2 19/19/2 7/7/2 35/35/2
f 29/29/3 18/18/3 6/6/3 27/27/3
f 24/24/4 20/20/4 5/5/4 15/15/4
f 19/19/4 21/21/4 11/11/4 7/7/4
f 23/23/1 22/22/1 12/12/1 16/16/1
f 18/18/1 23/23/1 16/16/1 6/6/1
f 21/21/4 24/24/4 15/15/4 11/11/4
f 37/37/1 43/43/1 23/23/1 18/18/1
f 43/43/1 42/42/1 22/22/1 23/23/1
f 40/40/4 41/41/4 21/21/4 19/19/4
f 44/44/4 38/38/4 20/20/4 24/24/4
f 46/46/3 37/37/3 18/18/3 29/29/3
f 48/48/2 40/40/2 19/19/2 36/36/2
f 42/42/1 39/39/1 17/17/1 22/22/1
f 39/39/2 45/45/2 30/30/2 17/17/2
f 47/47/3 46/46/3 29/29/3 31/31/3
f 31/31/3 29/29/3 27/27/3 34/34/3
f 17/17/2 30/30/2 28/28/2 8/8/2
f 20/20/3 31/31/3 34/34/3 5/5/3
f 38/38/3 47/47/3 31/31/3 20/20/3
f 30/30/2 36/36/2 35/35/2 28/28/2
f 26/26/2 33/33/2 48/48/2 45/45/2
f 1/1/3 32/32/3 47/47/3 38/38/3
f 32/32/3 25/25/3 46/46/3 47/47/3
f 4/4/2 26/26/2 45/45/2 39/39/2
f 10/10/1 4/4/1 39/39/1 42/42/1
f 33/33/2 3/3/2 40/40/2 48/48/2
f 25/25/3 2/2/3 37/37/3 46/46/3
f 13/13/4 1/1/4 38/38/4 44/44/4
f 3/3/4 9/9/4 41/41/4 40/40/4
f 14/14/1 10/10/1 42/42/1 43/43/1
f 2/2/1 14/14/1 43/43/1 37/37/1
