# Blender 3.4.1
# www.blender.org
mtllib walls.mtl
o room_Cube.001
v -2.000000 -0.000000 2.500000
v -2.000000 2.500000 2.500000
v -2.000000 0.000000 -2.500000
v -2.000000 2.500000 -2.500000
v 2.000000 -0.000000 2.500000
v 2.000000 2.500000 2.500000
v 2.000000 0.000000 -2.500000
v 2.000000 2.500000 -2.500000
v 1.800000 0.000000 -2.500000
v 1.800000 2.500000 -2.500000
v 1.800000 -0.000000 2.500000
v 1.800000 2.500000 2.500000
v -1.800000 0.000000 -2.500000
v -1.800000 2.500000 2.500000
v -1.800000 2.500000 -2.500000
v -1.800000 -0.000000 2.500000
v -2.000000 0.000000 -2.300000
v -2.000000 -0.000000 2.300000
v -2.000000 2.500000 2.300000
v -2.000000 2.500000 -2.299999
v 2.000000 -0.000000 2.300000
v 2.000000 0.000000 -2.300000
v 2.000000 2.500000 -2.299999
v 2.000000 2.500000 2.300000
v 1.800000 2.500000 -2.299999
v 1.800000 2.500000 2.300000
v 1.800000 0.000000 -2.300000
v 1.800000 -0.000000 2.300000
v -1.800000 0.000000 -2.300000
v -1.800000 -0.000000 2.300000
v -1.800000 2.500000 -2.299999
v -1.800000 2.500000 2.300000
v 1.800000 2.300000 -2.299999
v 1.800000 2.299999 2.300000
v -1.800000 2.300000 -2.299999
v -1.800000 2.299999 2.300000
v -0.480000 2.500000 -2.500000
v -0.480000 -0.000000 2.500000
v -0.480000 0.000000 -2.500000
v -0.480000 2.500000 2.500000
v -0.480000 2.500000 -2.299999
v -0.480000 2.500000 2.300000
v -0.480000 0.000000 -2.300000
v -0.480000 -0.000000 2.300000
v -0.480000 2.300000 -2.299999
v -0.480000 2.299999 2.300000
v 0.480000 2.500000 -2.500000
v 0.480000 -0.000000 2.500000
v 0.480000 2.500000 -2.299999
v 0.480000 2.500000 2.300000
v 0.480000 0.000000 -2.500000
v 0.480000 2.500000 2.500000
v 0.480000 0.000000 -2.300000
v 0.480000 -0.000000 2.300000
v 0.480000 2.300000 -2.299999
v 0.480000 2.299999 2.300000
v -2.000000 1.970000 2.500000
v -2.000000 1.970000 -2.500000
v 2.000000 1.970000 -2.500000
v 2.000000 1.970000 2.500000
v 1.800000 1.970000 2.500000
v 1.800000 1.970000 -2.500000
v -1.800000 1.970000 -2.500000
v -1.800000 1.970000 2.500000
v 2.000000 1.970000 -2.300000
v 2.000000 1.970000 2.300000
v -2.000000 1.970000 2.300000
v -2.000000 1.970000 -2.300000
v -0.480000 1.970000 2.500000
v -0.480000 1.970000 -2.500000
v 0.480000 1.970000 2.500000
v 0.480000 1.970000 -2.500000
v -1.800000 1.970000 2.300000
v 1.800000 1.970000 2.300000
v -1.800000 1.970000 -2.300000
v 1.800000 1.970000 -2.300000
v -0.480000 1.970000 -2.300000
v -0.480000 1.970000 2.300000
v 0.480000 1.970000 2.300000
v 0.480000 1.970000 -2.300000
v -2.000000 -0.000000 0.750000
v -2.000000 2.500000 0.750000
v 2.000000 -0.000000 0.750000
v 2.000000 2.500000 0.750000
v 1.800000 2.500000 0.750000
v 1.800000 -0.000000 0.750000
v -1.800000 -0.000000 0.750000
v -1.800000 2.500000 0.750000
v 1.800000 2.300000 0.750000
v -1.800000 2.300000 0.750000
v -2.000000 1.970000 0.750000
v 2.000000 1.970000 0.750000
v 1.800000 1.970000 0.750000
v -1.800000 1.970000 0.750000
v -2.000000 2.500000 -0.250000
v 2.000000 0.000000 -0.250000
v -2.000000 1.970000 -0.250000
v 1.800000 1.970000 -0.250000
v -2.000000 0.000000 -0.250000
v 2.000000 2.500000 -0.250000
v 1.800000 2.500000 -0.250000
v 1.800000 0.000000 -0.250000
v -1.800000 0.000000 -0.250000
v -1.800000 2.500000 -0.250000
v 1.800000 2.300000 -0.250000
v -1.800000 2.300000 -0.250000
v 2.000000 1.970000 -0.250000
v -1.800000 1.970000 -0.250000
v -2.000000 1.015374 -2.500000
v 2.000000 1.015374 -2.500000
v 2.000000 1.015374 2.500000
v 1.800000 1.015374 2.500000
v 1.800000 1.015374 -2.500000
v -1.800000 1.015374 -2.500000
v -1.800000 1.015374 2.500000
v 2.000000 1.015374 -2.300000
v 2.000000 1.015374 2.300000
v -2.000000 1.015374 2.300000
v -2.000000 1.015374 -2.300000
v 1.800000 1.015374 2.300000
v 1.800000 1.015374 -2.300000
v -0.480000 1.015374 2.500000
v -0.480000 1.015374 -2.500000
v 0.480000 1.015374 2.500000
v 0.480000 1.015374 -2.500000
v -2.000000 1.015374 2.500000
v -1.800000 1.015374 2.300000
v -1.800000 1.015374 -2.300000
v -0.480000 1.015374 -2.300000
v -0.480000 1.015374 2.300000
v 0.480000 1.015374 2.300000
v 0.480000 1.015374 -2.300000
v -1.800000 1.015374 0.750000
v 1.800000 1.015374 0.750000
v 2.000000 1.015374 0.750000
v -2.000000 1.015374 0.750000
v 2.000000 1.015374 -0.250000
v 1.800000 1.015374 -0.250000
v -1.800000 1.015374 -0.250000
v -2.000000 1.015374 -0.250000
vn -1.0000 -0.0000 -0.0000
vn -0.0000 -0.0000 -1.0000
vn 1.0000 -0.0000 -0.0000
vn -0.0000 -0.0000 1.0000
vn -0.0000 -1.0000 -0.0000
vn -0.0000 1.0000 -0.0000
vt 0.125000 0.750000
vt 0.375000 1.000000
vt 0.375000 0.000000
vt 0.625000 1.000000
vt 0.875000 0.750000
vt 0.625000 0.000000
vt 0.125000 0.500000
vt 0.375000 0.250000
vt 0.625000 0.250000
vt 0.875000 0.500000
vt 0.375000 0.750000
vt 0.625000 0.750000
vt 0.375000 0.500000
vt 0.625000 0.500000
vt 0.356764 0.500000
vt 0.375000 0.481764
vt 0.625000 0.481764
vt 0.643236 0.500000
vt 0.356764 0.750000
vt 0.375000 0.768236
vt 0.643236 0.750000
vt 0.625000 0.768236
vt 0.182136 0.500000
vt 0.375000 0.307136
vt 0.817864 0.750000
vt 0.625000 0.942864
vt 0.817864 0.500000
vt 0.625000 0.307136
vt 0.182136 0.750000
vt 0.375000 0.942864
vt 0.125000 0.512055
vt 0.375000 0.237945
vt 0.125000 0.733848
vt 0.375000 0.016152
vt 0.875000 0.733848
vt 0.625000 0.016152
vt 0.625000 0.237945
vt 0.875000 0.512055
vt 0.375000 0.733848
vt 0.375000 0.512055
vt 0.625000 0.512055
vt 0.625000 0.733848
vt 0.643236 0.512055
vt 0.643236 0.733848
vt 0.356764 0.512055
vt 0.356764 0.733848
vt 0.182136 0.512055
vt 0.182136 0.733848
vt 0.817864 0.512055
vt 0.817864 0.733848
vt 0.356764 0.512055
vt 0.356764 0.733848
vt 0.182136 0.512055
vt 0.182136 0.733848
vt 0.752288 0.500000
vt 0.625000 0.372712
vt 0.247712 0.750000
vt 0.375000 0.877288
vt 0.247712 0.500000
vt 0.375000 0.372712
vt 0.625000 0.877288
vt 0.752288 0.750000
vt 0.752288 0.512055
vt 0.752288 0.733848
vt 0.247712 0.512055
vt 0.247712 0.733848
vt 0.247712 0.512055
vt 0.247712 0.733848
vt 0.696414 0.500000
vt 0.625000 0.428586
vt 0.303586 0.750000
vt 0.375000 0.821414
vt 0.696414 0.512055
vt 0.696414 0.733848
vt 0.303586 0.500000
vt 0.375000 0.428586
vt 0.696414 0.750000
vt 0.625000 0.821414
vt 0.303586 0.512055
vt 0.303586 0.733848
vt 0.303586 0.512055
vt 0.303586 0.733848
vt 0.571865 0.000000
vt 0.571865 1.000000
vt 0.571865 0.250000
vt 0.571865 0.500000
vt 0.571865 0.750000
vt 0.571865 0.768236
vt 0.571865 0.481764
vt 0.571865 0.307136
vt 0.571865 0.942864
vt 0.571865 0.512055
vt 0.571865 0.733848
vt 0.571865 0.016152
vt 0.571865 0.237945
vt 0.571865 0.877288
vt 0.571865 0.372712
vt 0.571865 0.821414
vt 0.571865 0.428586
vt 0.182136 0.733848
vt 0.356764 0.733848
vt 0.182136 0.512055
vt 0.356764 0.512055
vt 0.247712 0.512055
vt 0.247712 0.733848
vt 0.303586 0.733848
vt 0.303586 0.512055
vt 0.125000 0.622952
vt 0.375000 0.127048
vt 0.875000 0.622952
vt 0.625000 0.127048
vt 0.375000 0.622952
vt 0.625000 0.622952
vt 0.643236 0.622952
vt 0.356764 0.622952
vt 0.182136 0.622952
vt 0.817864 0.622952
vt 0.356764 0.622952
vt 0.182136 0.622952
vt 0.571865 0.127048
vt 0.571865 0.622952
vt 0.356764 0.622952
vt 0.182136 0.622952
vt 0.875000 0.567503
vt 0.625000 0.182497
vt 0.375000 0.567503
vt 0.571865 0.182497
vt 0.356764 0.567503
vt 0.125000 0.567503
vt 0.375000 0.182497
vt 0.625000 0.567503
vt 0.643236 0.567503
vt 0.356764 0.567503
vt 0.182136 0.567503
vt 0.817864 0.567503
vt 0.356764 0.567503
vt 0.182136 0.567503
vt 0.571865 0.567503
vt 0.182136 0.567503
vt 0.476468 0.250000
vt 0.476468 0.500000
vt 0.476468 0.750000
vt 0.476468 0.768236
vt 0.476468 0.481764
vt 0.476468 0.307136
vt 0.476468 0.942864
vt 0.476468 0.512055
vt 0.476468 0.733848
vt 0.476468 0.016152
vt 0.476468 0.237945
vt 0.356764 0.733848
vt 0.356764 0.512055
vt 0.476468 0.877288
vt 0.414786 0.434393
vt 0.476468 0.372712
vt 0.476468 0.821414
vt 0.441862 0.463192
vt 0.476468 0.428586
vt 0.476468 1.000000
vt 0.476468 0.000000
vt 0.182136 0.733848
vt 0.182136 0.512055
vt 0.247712 0.512055
vt 0.247712 0.733848
vt 0.303586 0.733848
vt 0.303586 0.512055
vt 0.182136 0.622952
vt 0.356764 0.622952
vt 0.476468 0.622952
vt 0.476468 0.127048
vt 0.476468 0.567503
vt 0.356764 0.567503
vt 0.182136 0.567503
vt 0.476468 0.182497
s 0
usemtl None.006
f 68/95/1 20/37/1 4/9/1 58/85/1
f 62/89/2 10/17/2 8/14/2 59/86/2
f 66/93/3 24/42/3 6/12/3 60/87/3
f 64/91/4 14/26/4 2/4/4 57/84/4
f 28/46/5 21/39/5 5/11/5 11/19/5
f 32/50/6 19/35/6 2/5/6 14/25/6
f 24/42/6 26/44/6 12/21/6 6/12/6
f 54/80/5 28/46/5 11/19/5 48/71/5
f 60/87/4 6/12/4 12/22/4 61/88/4
f 72/99/2 47/70/2 10/17/2 62/89/2
f 58/85/2 4/9/2 15/28/2 63/90/2
f 18/33/5 30/48/5 16/29/5 1/1/5
f 42/64/6 32/50/6 14/25/6 40/62/6
f 69/96/4 40/61/4 14/26/4 64/91/4
f 37/55/6 15/27/6 31/49/6 41/63/6
f 3/7/5 13/23/5 29/47/5 17/31/5
f 81/108/5 87/116/5 30/48/5 18/33/5
f 51/75/5 9/15/5 27/45/5 53/79/5
f 78/105/2 73/100/2 36/54/2 46/68/2
f 8/14/6 10/18/6 25/43/6 23/41/6
f 84/113/6 85/114/6 26/44/6 24/42/6
f 15/27/6 4/10/6 20/38/6 31/49/6
f 88/117/6 82/110/6 19/35/6 32/50/6
f 9/15/5 7/13/5 22/40/5 27/45/5
f 86/115/5 83/112/5 21/39/5 28/46/5
f 59/86/3 8/14/3 23/41/3 65/92/3
f 92/121/3 84/113/3 24/42/3 66/93/3
f 57/83/1 2/6/1 19/36/1 67/94/1
f 97/127/1 95/125/1 20/37/1 68/95/1
f 108/139/3 75/102/3 35/53/3 106/137/3
f 93/122/1 74/101/1 34/52/1 89/118/1
f 80/107/4 76/103/4 33/51/4 55/81/4
f 75/102/4 77/104/4 45/67/4 35/53/4
f 79/106/2 78/105/2 46/68/2 56/82/2
f 13/23/5 39/59/5 43/65/5 29/47/5
f 47/69/6 37/55/6 41/63/6 49/73/6
f 71/98/4 52/78/4 40/61/4 69/96/4
f 50/74/6 42/64/6 40/62/6 52/77/6
f 63/90/2 15/28/2 37/56/2 70/97/2
f 30/48/5 44/66/5 38/57/5 16/29/5
f 26/44/6 50/74/6 52/77/6 12/21/6
f 61/88/4 12/22/4 52/78/4 71/98/4
f 10/18/6 47/69/6 49/73/6 25/43/6
f 74/101/2 79/106/2 56/82/2 34/52/2
f 77/104/4 80/107/4 55/81/4 45/67/4
f 70/97/2 37/56/2 47/70/2 72/99/2
f 44/66/5 54/80/5 48/71/5 38/57/5
f 77/104/5 70/97/5 72/99/5 80/107/5
f 112/143/4 61/88/4 71/98/4 124/156/4
f 114/145/2 63/90/2 70/97/2 123/155/2
f 124/156/4 71/98/4 69/96/4 122/153/4
f 140/174/1 97/127/1 68/95/1 119/150/1
f 126/160/1 57/83/1 67/94/1 118/149/1
f 135/169/3 92/121/3 66/93/3 117/148/3
f 110/141/3 59/86/3 65/92/3 116/147/3
f 122/153/4 69/96/4 64/91/4 115/146/4
f 109/140/2 58/85/2 63/90/2 114/145/2
f 125/158/2 72/99/2 62/89/2 113/144/2
f 111/142/4 60/87/4 61/88/4 112/143/4
f 115/146/4 64/91/4 57/84/4 126/159/4
f 117/148/3 66/93/3 60/87/3 111/142/3
f 113/144/2 62/89/2 59/86/2 110/141/2
f 119/150/1 68/95/1 58/85/1 109/140/1
f 132/166/1 125/157/1 51/75/1 53/79/1
f 120/151/2 131/165/2 79/106/2 74/101/2
f 131/165/2 130/164/2 78/105/2 79/106/2
f 128/162/4 129/163/4 77/104/4 75/102/4
f 132/166/4 121/152/4 76/103/4 80/107/4
f 134/168/1 120/151/1 74/101/1 93/122/1
f 139/173/3 128/162/3 75/102/3 108/139/3
f 130/164/2 127/161/2 73/100/2 78/105/2
f 129/163/3 43/65/3 39/59/3 123/154/3
f 127/161/3 133/167/3 94/123/3 73/100/3
f 138/172/1 134/168/1 93/122/1 98/128/1
f 137/171/3 107/138/3 92/121/3 135/169/3
f 118/149/1 67/94/1 91/120/1 136/170/1
f 98/128/1 93/122/1 89/118/1 105/136/1
f 73/100/3 94/123/3 90/119/3 36/54/3
f 67/94/1 19/36/1 82/111/1 91/120/1
f 107/138/3 100/131/3 84/113/3 92/121/3
f 102/133/5 96/126/5 83/112/5 86/115/5
f 104/135/6 95/124/6 82/110/6 88/117/6
f 100/131/6 101/132/6 85/114/6 84/113/6
f 99/129/5 103/134/5 87/116/5 81/108/5
f 17/31/5 29/47/5 103/134/5 99/129/5
f 23/41/6 25/43/6 101/132/6 100/131/6
f 31/49/6 20/38/6 95/124/6 104/135/6
f 27/45/5 22/40/5 96/126/5 102/133/5
f 65/92/3 23/41/3 100/131/3 107/138/3
f 76/103/1 98/128/1 105/136/1 33/51/1
f 116/147/3 65/92/3 107/138/3 137/171/3
f 121/152/1 138/172/1 98/128/1 76/103/1
f 94/123/3 108/139/3 106/137/3 90/119/3
f 91/120/1 82/111/1 95/125/1 97/127/1
f 81/109/1 136/170/1 140/174/1 99/130/1
f 87/116/3 103/134/3 139/173/3 133/167/3
f 27/45/1 102/133/1 138/172/1 121/152/1
f 22/40/3 116/147/3 137/171/3 96/126/3
f 18/34/1 118/149/1 136/170/1 81/109/1
f 96/126/3 137/171/3 135/169/3 83/112/3
f 102/133/1 86/115/1 134/168/1 138/172/1
f 30/48/3 87/116/3 133/167/3 127/161/3
f 77/104/3 129/163/3 123/154/3 70/97/3
f 44/66/2 30/48/2 127/161/2 130/164/2
f 103/134/3 29/47/3 128/162/3 139/173/3
f 86/115/1 28/46/1 120/151/1 134/168/1
f 53/79/4 27/45/4 121/152/4 132/166/4
f 29/47/4 43/65/4 129/163/4 128/162/4
f 54/80/2 44/66/2 130/164/2 131/165/2
f 28/46/2 54/80/2 131/165/2 120/151/2
f 80/107/1 72/99/1 125/157/1 132/166/1
f 17/32/1 119/150/1 109/140/1 3/8/1
f 9/16/2 113/144/2 110/141/2 7/13/2
f 21/39/3 117/148/3 111/142/3 5/11/3
f 16/30/4 115/146/4 126/159/4 1/2/4
f 5/11/4 111/142/4 112/143/4 11/20/4
f 51/76/2 125/158/2 113/144/2 9/16/2
f 3/8/2 109/140/2 114/145/2 13/24/2
f 38/58/4 122/153/4 115/146/4 16/30/4
f 7/13/3 110/141/3 116/147/3 22/40/3
f 83/112/3 135/169/3 117/148/3 21/39/3
f 1/3/1 126/160/1 118/149/1 18/34/1
f 99/130/1 140/174/1 119/150/1 17/32/1
f 48/72/4 124/156/4 122/153/4 38/58/4
f 13/24/2 114/145/2 123/155/2 39/60/2
f 11/20/4 112/143/4 124/156/4 48/72/4
f 136/170/6 133/167/6 139/173/6 140/174/6
f 139/173/4 108/139/4 97/127/4 140/174/4
f 108/139/5 94/123/5 91/120/5 97/127/5
f 133/167/2 136/170/2 91/120/2 94/123/2
